<svg xmlns="http://www.w3.org/2000/svg" viewBox="0 0 500 500" width="500" height="500">
  <rect x="0" y="0" width="500" height="500" rx="0" fill="#1c2027"/>
  <g transform="translate(250.0 250.0) scale(0.42350 -0.42350) translate(-428.880 -354.000)">
    <path d="M355.104736328125 -12Q315.00146484375 -12 283.1912841796875 -1.1552734375Q251.381103515625 9.689453125 227.4501953125 27.9996337890625Q203.519287109375 46.309814453125 186.519287109375 70.58544921875L174.553466796875 0H67.51708984375V720H187.519287109375V430.10400390625Q211.519287109375 466.62109375 252.5880126953125 491.310546875Q293.65673828125 516 354.277099609375 516Q424.794189453125 516 479.5872802734375 481.5Q534.38037109375 447 565.7080078125 387.5Q597.03564453125 328 597.03564453125 252Q597.03564453125 176.413818359375 565.9149169921875 116.2069091796875Q534.794189453125 56 480.2080078125 22.0Q425.621826171875 -12 355.104736328125 -12ZM329.79345703125 92.4501953125Q371.758544921875 92.4501953125 404.37890625 112.725830078125Q436.999267578125 133.00146484375 455.6025390625 168.466552734375Q474.205810546875 203.931640625 474.205810546875 251.586181640625Q474.205810546875 298.654541015625 455.6025390625 334.61962890625Q436.999267578125 370.584716796875 404.37890625 391.0672607421875Q371.758544921875 411.5498046875 329.79345703125 411.5498046875Q286.828369140625 411.5498046875 254.2080078125 391.0672607421875Q221.587646484375 370.584716796875 203.484375 334.8265380859375Q185.381103515625 299.068359375 185.381103515625 252Q185.381103515625 204.345458984375 203.484375 168.6734619140625Q221.587646484375 133.00146484375 254.2080078125 112.725830078125Q286.828369140625 92.4501953125 329.79345703125 92.4501953125Z" fill="#f0f4f8"/>
    <g transform="translate(596 0)"><path d="M119.03564453125 -5Q85.345458984375 -5 64.0865478515625 15.8450927734375Q42.82763671875 36.690185478125 42.82763671875 66.483642578125Q42.82763671875 97.104736328125 64.0865478515625 117.9498291015625Q85.345458984375 138.794921875 119.03564453125 138.794921875Q152.31201171875 138.794921875 173.27783203125 117.9498291015625Q194.24365234375 97.104736328125 194.24365234375 66.483642578125Q194.24365234375 36.690185478125 173.27783203125 15.8450927734375Q152.31201171875 -5 119.03564453125 -5Z" fill="#F3522C"/></g>
  </g>
</svg>